<svg xmlns="http://www.w3.org/2000/svg" viewBox="0 0 600 600"><rect width="600" height="600" fill="#f8fbfb"/><path d="M 214.0345,220.0345 L 214.0345,139.6552 L 218.4828,139.6552 L 218.4828,108.6207 L 220.1379,108.6207 L 220.1379,77.5862 L 215.7931,77.5862 L 215.7931,51.7241 L 212.2759,51.7241 L 212.2759,15.5172 L 217.4483,15.5172 L 217.4483,0.0000 L 263.7931,0.0000 L 263.7931,15.5172 L 257.5862,15.5172 L 257.5862,77.5862 L 262.1379,77.5862 L 262.1379,139.6552 L 262.6552,139.6552 L 262.6552,220.0345 Z M 22.3448,225.5172 L 22.3448,139.6552 L 16.3448,139.6552 L 16.3448,77.5862 L 20.2759,77.5862 L 20.2759,15.5172 L 20.4828,15.5172 L 20.4828,0.0000 L 66.6207,0.0000 L 66.6207,15.5172 L 67.5517,15.5172 L 67.5517,77.5862 L 60.8276,77.5862 L 60.8276,139.6552 L 73.0345,139.6552 L 73.0345,225.5172 Z M 279.3103,432.7241 L 279.3103,426.5172 L 253.4483,426.5172 L 253.4483,425.1724 L 217.2414,425.1724 L 217.2414,428.8966 L 155.1724,428.8966 L 155.1724,430.0345 L 93.1034,430.0345 L 93.1034,427.3448 L 31.0345,427.3448 L 31.0345,428.8966 L 0.0000,428.8966 L 0.0000,384.4138 L 20.6897,384.4138 L 20.6897,378.3103 L 77.5862,378.3103 L 77.5862,383.8966 L 139.6552,383.8966 L 139.6552,384.4138 L 201.7241,384.4138 L 201.7241,380.4828 L 263.7931,380.4828 L 263.7931,385.9655 L 325.8621,385.9655 L 325.8621,242.7931 L 392.8966,242.7931 L 392.8966,300.0000 L 388.1379,300.0000 L 388.1379,382.7586 L 402.0000,382.7586 L 402.0000,423.9310 L 341.3793,423.9310 L 341.3793,424.1379 L 310.3448,424.1379 L 310.3448,432.7241 Z M 532.1379,409.9655 L 532.1379,378.9310 L 600.0000,378.9310 L 600.0000,409.9655 Z M 30.8276,600.0000 L 30.8276,567.1034 L 93.1034,567.1034 L 93.1034,562.6552 L 124.1379,562.6552 L 124.1379,561.4138 L 155.1724,561.4138 L 155.1724,565.1379 L 181.0345,565.1379 L 181.0345,559.4483 L 217.2414,559.4483 L 217.2414,559.1379 L 279.3103,559.1379 L 279.3103,558.8276 L 329.2759,558.8276 L 329.2759,558.5172 L 379.3448,558.5172 L 379.3448,558.3103 L 429.3103,558.3103 L 429.3103,559.1379 L 491.3793,559.1379 L 491.3793,558.2069 L 527.5862,558.2069 L 527.5862,560.5862 L 553.4483,560.5862 L 553.4483,558.0000 L 584.4828,558.0000 L 584.4828,557.7931 L 600.0000,557.7931 L 600.0000,600.0000 Z M 422.2759,132.5172 L 422.2759,29.0690 L 453.3103,29.0690 L 453.3103,132.5172 Z M 170.5862,325.7586 L 170.5862,294.7241 L 274.0345,294.7241 L 274.0345,325.7586 Z M 11.7931,325.7586 L 11.7931,294.7241 L 115.2414,294.7241 L 115.2414,325.7586 Z M 124.2414,66.0000 L 124.2414,0.0000 L 155.2759,0.0000 L 155.2759,66.0000 Z M 319.8621,196.5517 L 319.8621,93.1034 L 350.8966,93.1034 L 350.8966,196.5517 Z M 524.3793,47.8966 L 524.3793,0.0000 L 555.4138,0.0000 L 555.4138,47.8966 Z M 319.8621,33.6207 L 319.8621,0.0000 L 350.8966,0.0000 L 350.8966,33.6207 Z M 524.3793,225.1034 L 524.3793,121.6552 L 555.4138,121.6552 L 555.4138,225.1034 Z M 124.2414,223.9655 L 124.2414,120.5172 L 155.2759,120.5172 L 155.2759,223.9655 Z" fill="#546acb" fill-opacity="0.72" stroke="#546acb" stroke-width="1.4" fill-rule="evenodd"/><path d="M 212.0690,201.7241 L 212.0690,0.0000 L 263.7931,0.0000 L 263.7931,201.7241 Z M 0.0000,434.4828 L 0.0000,382.7586 L 325.8621,382.7586 L 325.8621,248.2759 L 403.4483,248.2759 L 403.4483,434.4828 Z M 15.5172,201.7241 L 15.5172,0.0000 L 67.2414,0.0000 L 67.2414,201.7241 Z M 31.0345,600.0000 L 31.0345,558.6207 L 600.0000,558.6207 L 600.0000,600.0000 Z" fill="none" stroke="#c67b32" stroke-width="1.15" stroke-dasharray="5 3" fill-rule="evenodd"/><rect x="14" y="553" width="130" height="38" rx="5" fill="white" fill-opacity=".93"/><path d="M24 569h103.45" stroke="#263f43" stroke-width="3"/><text x="24" y="586" font-family="Arial" font-size="13" fill="#263f43">100 nm</text></svg>